<?xml version="1.0" encoding="UTF-8"?><svg id="Layer_2" xmlns="http://www.w3.org/2000/svg" viewBox="0 0 149.14 31.82"><defs><style>.cls-1{fill:#003b5c;}.cls-2{fill:#fff;}.cls-3{fill:#ffb81b;}.cls-4{stroke:#fff;}.cls-4,.cls-5{fill:none;stroke-miterlimit:10;stroke-width:1.4px;}.cls-5{stroke:#ffb81b;}</style></defs><g id="Layer_13"><rect class="cls-1" width="149.14" height="31.82" rx="4.23" ry="4.23"/></g><g id="favicon"><path class="cls-3" d="m36.28,10.29c1.16,1.06,1.75,2.61,1.75,4.64,0,1.31-.29,2.45-.85,3.43-.57.98-1.39,1.74-2.47,2.28-1.07.54-2.36.81-3.84.81l-1.12-.02c-.7-.02-1.2-.04-1.51-.04-1.24,0-2.16.02-2.77.05v-.36c.4-.02.69-.07.87-.14.19-.07.31-.21.38-.41.07-.2.1-.53.1-.99v-8.93c0-.46-.03-.79-.1-.99-.07-.2-.19-.34-.38-.41-.19-.07-.48-.12-.87-.14v-.36c.5.04,1.23.05,2.18.05h.56l.72-.02c.98-.02,1.69-.04,2.11-.04,2.34,0,4.09.53,5.26,1.59Zm-6.11-1.14c-.19.08-.32.23-.39.45-.07.22-.11.54-.11.97v9c0,.43.04.76.11.97.07.22.2.37.39.45.19.08.47.13.85.13,1.45,0,2.48-.51,3.1-1.52.61-1.01.92-2.55.92-4.6s-.32-3.56-.95-4.53-1.66-1.45-3.09-1.45c-.37,0-.65.04-.84.13Z"/><path class="cls-3" d="m45.43,8.65c.37.12.75.29,1.13.52.13.07.25.13.35.18s.19.07.26.07c.11,0,.19-.06.25-.19.06-.13.11-.33.14-.6h.41c-.06.8-.09,2.17-.09,4.1h-.41c-.05-.65-.2-1.27-.44-1.85-.25-.59-.59-1.06-1.04-1.43s-.97-.55-1.58-.55-1.06.17-1.43.5-.55.78-.55,1.34c0,.42.09.79.27,1.1.18.31.43.6.76.86.32.26.82.61,1.49,1.05l.58.4c.71.47,1.27.88,1.67,1.22.41.35.74.75,1,1.21s.39,1,.39,1.61c0,.77-.2,1.41-.59,1.93-.4.52-.93.92-1.61,1.18-.68.26-1.43.4-2.26.4-.67,0-1.23-.06-1.67-.18-.44-.12-.85-.28-1.22-.49-.26-.17-.47-.25-.61-.25-.11,0-.19.06-.25.19s-.11.33-.14.6h-.41c.05-.76.07-2.38.07-4.86h.41c.08,1.34.38,2.43.9,3.27s1.31,1.25,2.38,1.25c.65,0,1.18-.17,1.6-.52.42-.35.63-.85.63-1.49s-.22-1.25-.65-1.73c-.43-.48-1.12-1.02-2.05-1.62-.72-.47-1.3-.88-1.73-1.22-.43-.35-.79-.76-1.06-1.23-.28-.47-.41-1.02-.41-1.65,0-.72.18-1.33.55-1.83s.86-.87,1.47-1.11c.61-.24,1.28-.36,2.02-.36.62,0,1.12.06,1.49.18Z"/><path class="cls-3" d="m55.61,9.06c-.43.02-.75.07-.95.14-.2.07-.33.21-.41.41-.07.2-.11.53-.11.99v9.14c0,.38.03.66.09.84.06.17.17.29.31.35.15.06.39.09.73.09h.88c.82,0,1.52-.37,2.12-1.1.59-.73.98-1.7,1.16-2.92h.41c-.04.41-.05.94-.05,1.58,0,1.15.04,2.1.13,2.84-.82-.04-2.19-.05-4.12-.05-2.62,0-4.57.02-5.87.05v-.36c.4-.02.69-.07.87-.14.19-.07.31-.21.38-.41.07-.2.1-.53.1-.99v-8.93c0-.46-.03-.79-.1-.99-.07-.2-.19-.34-.38-.41-.19-.07-.48-.12-.87-.14v-.36c.61.04,1.56.05,2.84.05s2.17-.02,2.83-.05v.36Z"/><path class="cls-3" d="m61.42,20.98c-.38-.4-.57-.92-.57-1.57,0-.54.14-.99.42-1.34.28-.35.62-.63,1.03-.82.4-.19.92-.4,1.54-.61.66-.23,1.14-.44,1.45-.62.31-.19.46-.44.46-.77v-1.4c0-.5-.12-.9-.35-1.18-.23-.28-.6-.42-1.09-.42-.58,0-1.01.14-1.31.43.34.12.6.3.78.54.19.24.28.52.28.85,0,.41-.14.73-.41.97-.28.24-.61.36-1.01.36-.42,0-.74-.13-.97-.4-.23-.26-.34-.59-.34-.99,0-.34.08-.62.24-.86.16-.23.41-.45.75-.66.32-.19.72-.34,1.2-.45.47-.11.99-.16,1.56-.16s1.1.06,1.53.18c.43.12.79.32,1.08.61.26.26.44.59.53.97s.13.91.13,1.57v4.9c0,.29.03.49.08.61s.16.18.32.18c.18,0,.4-.1.65-.31l.18.31c-.54.44-1.2.67-1.98.67-.66,0-1.12-.13-1.39-.4s-.4-.62-.41-1.06c-.6.97-1.48,1.46-2.65,1.46-.77,0-1.34-.2-1.72-.59Zm4.33-1.3v-3.69c-.14.24-.45.5-.92.79-.47.3-.82.6-1.06.9-.24.3-.36.73-.36,1.3,0,.49.1.85.31,1.09s.47.35.81.35c.47,0,.88-.25,1.22-.74Z"/><path class="cls-3" d="m78.62,13.09c.6.8.9,1.95.9,3.46,0,1.76-.38,3.06-1.15,3.9s-1.76,1.25-2.97,1.25c-.83,0-1.5-.21-2.02-.63-.43-.04-.86.01-1.3.14-.43.13-.77.31-1.03.52l-.27-.16c.08-.3.13-.64.13-1.01v-11.03c0-.55-.09-.95-.26-1.21s-.47-.38-.89-.38v-.38c.37.04.74.05,1.12.05,1.04,0,1.92-.08,2.63-.25v6.23c.25-.55.62-.98,1.1-1.27.48-.29,1.03-.44,1.66-.44.97,0,1.76.4,2.36,1.2Zm-2.3,7.12c.32-.74.49-1.88.49-3.4s-.14-2.54-.41-3.18c-.28-.64-.67-.96-1.19-.96-.38,0-.74.14-1.05.42-.32.28-.53.66-.64,1.14v6.61c.4.32.84.49,1.33.49.66,0,1.15-.37,1.48-1.12Z"/><path class="cls-2" d="m86.75,24.96h-.72V6h.72v18.95Z"/><path class="cls-2" d="m93.37,18.06c-.06-.5-.03-1.22-.03-1.58l.76-8.51h2.78l-.76,8.59c-.16,1.86.57,3.18,2.43,3.18s2.89-1.33,3.05-2.99l.8-8.78h2.79l-.77,8.67c-.32,3.35-2.53,5.84-6.1,5.84-2.79,0-4.59-1.8-4.94-4.41m12.94-2.89c.36-4.09,3.13-7.48,7.88-7.48,1.26,0,2.47.29,3.66,1.07l-.32,3.38c-1.09-1.46-2.4-1.68-3.61-1.68-2.96,0-4.59,2.06-4.82,4.66-.22,2.55,1.09,4.61,3.97,4.61,1.25,0,2.57-.36,3.97-1.76l-.31,3.47c-1.35.74-2.61,1.07-3.88,1.07-4.72,0-6.88-3.5-6.54-7.33m13.78-7.21h2.77l-1.02,11.56h3.98c.29,0,1.24-.02,1.5-.02-.02.14-.26,2.66-.26,2.66h-8.24l1.27-14.2m15.2-.64h-.2l-7.61,14.85h2.96l1.06-2.25h5.38l.67,2.25h2.93l-5.18-14.85m-.7,5.94c.09-.19.16-.45.2-.59h.05c.02.18.04.39.1.6.14.64,1.24,4.23,1.24,4.23h-3.52s1.88-4.14,1.93-4.25h0Z"/><polyline class="cls-4" points="12.08 15.22 12.08 16.73 15.5 21.89 8.66 21.89 10.76 18.93"/><polyline class="cls-5" points="12.08 14.92 12.08 13.41 8.66 8.25 15.5 8.25 13.4 11.2"/></g></svg>